<svg width="214" height="214" viewBox="0 0 214 214" fill="none" xmlns="http://www.w3.org/2000/svg">
<g opacity="0.4">
<path d="M87.9147 15.7117C94.5254 12.8242 100.5 11.1458 107 11.1458C113.5 11.1458 119.475 12.8242 126.085 15.7117C132.497 18.5121 139.931 22.6496 149.282 27.8537L186.216 48.408C191.356 51.2682 195.658 54.8607 198.613 59.7047C201.582 64.5728 202.854 70.1502 202.854 76.4075C202.858 78.6854 202.863 81.585 202.314 83.6518C200.932 88.8528 197.64 92.2051 193.607 94.0017C189.975 95.6201 186.028 95.8542 183.066 95.8542H30.9345C27.972 95.8542 24.0255 95.6201 20.3928 94.0017C16.3602 92.2051 13.0676 88.8528 11.6859 83.6518C11.1369 81.585 11.1418 78.6853 11.1459 76.4075C11.1459 70.1502 12.4179 64.5728 15.3876 59.7047C18.3426 54.8607 22.644 51.2683 27.7837 48.408L64.7178 27.8537L64.7181 27.8536C74.0691 22.6495 81.5036 18.5121 87.9147 15.7117Z" fill="#F6F6F6"/>
<path d="M11.1458 191.708C11.1458 173.241 26.1163 158.271 44.5833 158.271H98.0833C101.777 158.271 104.771 161.265 104.771 164.958V196.167C104.771 199.86 101.777 202.854 98.0833 202.854H22.2916C16.136 202.854 11.1458 197.864 11.1458 191.708Z" fill="#F6F6F6"/>
<path fill-rule="evenodd" clip-rule="evenodd" d="M122.987 198.013C119.504 194.531 119.504 188.885 122.987 185.403L185.403 122.987C188.885 119.504 194.531 119.504 198.013 122.987C201.496 126.469 201.496 132.115 198.013 135.597L135.597 198.013C132.115 201.496 126.469 201.496 122.987 198.013Z" fill="#F6F6F6"/>
<path fill-rule="evenodd" clip-rule="evenodd" d="M120.375 133.75C120.375 126.363 126.363 120.375 133.75 120.375C141.137 120.375 147.125 126.363 147.125 133.75C147.125 141.137 141.137 147.125 133.75 147.125C126.363 147.125 120.375 141.137 120.375 133.75Z" fill="#F6F6F6"/>
<path fill-rule="evenodd" clip-rule="evenodd" d="M173.875 187.25C173.875 179.863 179.863 173.875 187.25 173.875C194.637 173.875 200.625 179.863 200.625 187.25C200.625 194.637 194.637 200.625 187.25 200.625C179.863 200.625 173.875 194.637 173.875 187.25Z" fill="#F6F6F6"/>
<path d="M28.9778 152.319V104.736L78.0195 104.768V149.352H44.582C39.0714 149.352 33.8067 150.404 28.9778 152.319Z" fill="#F6F6F6"/>
</g>
</svg>
