<svg width="16" height="16" viewBox="0 0 16 16" fill="none" xmlns="http://www.w3.org/2000/svg">
<path d="M8.00098 0.833008C10.5517 0.833008 12.9853 2.34163 14.0039 4.72266C14.9507 6.93589 14.4393 8.82397 13.3721 10.4404C12.4869 11.7812 11.1916 12.9752 10.0264 14.0488C9.81947 14.2395 9.61655 14.4262 9.4209 14.6094C9.03755 14.9683 8.5279 15.166 8.00098 15.166C7.47407 15.166 6.96439 14.9683 6.58105 14.6094L6.58008 14.6084C6.37306 14.4134 6.15823 14.214 5.93848 14.0107C4.78578 12.9448 3.50787 11.7634 2.63184 10.4395C1.56334 8.82465 1.05008 6.93863 1.99805 4.72266C3.01668 2.34163 5.45026 0.833027 8.00098 0.833008ZM8 4.66602C6.52724 4.66602 5.33301 5.86025 5.33301 7.33301C5.33301 8.80577 6.52724 10 8 10C9.47276 10 10.667 8.80577 10.667 7.33301C10.667 5.86025 9.47276 4.66602 8 4.66602Z" fill="black"/>
</svg>
