<svg width="16" height="16" viewBox="0 0 16 16" fill="none" xmlns="http://www.w3.org/2000/svg">
<path d="M9.72266 0.917318C9.89061 0.805352 10.1094 0.805352 10.2773 0.917318L12 2.06576L13.7227 0.917318C13.8761 0.815033 14.0737 0.805895 14.2363 0.892904C14.3986 0.97999 14.5 1.14912 14.5 1.33333V14.6663C14.5 14.8507 14.3988 15.0207 14.2363 15.1077C14.0737 15.1948 13.8761 15.1846 13.7227 15.0824L12 13.9339L10.2773 15.0824C10.1094 15.1943 9.89061 15.1943 9.72266 15.0824L8 13.9339L6.27734 15.0824C6.10939 15.1943 5.89061 15.1943 5.72266 15.0824L4 13.9339L2.27734 15.0824C2.12392 15.1846 1.92625 15.1948 1.76367 15.1077C1.60122 15.0207 1.5 14.8507 1.5 14.6663V1.33333C1.5 1.14912 1.60137 0.97999 1.76367 0.892904C1.92625 0.805895 2.12392 0.815033 2.27734 0.917318L4 2.06576L5.72266 0.917318C5.89061 0.805352 6.10939 0.805352 6.27734 0.917318L8 2.06576L9.72266 0.917318ZM5.33301 9.72396L6.27637 10.6663L10.667 6.27572L9.72363 5.33333L5.33301 9.72396ZM9.32715 9.33333V10.6663H10.667V9.33333H9.32715ZM5.33301 5.33333V6.66634H6.67285V5.33333H5.33301Z" fill="black"/>
</svg>
