<svg width="16" height="16" viewBox="0 0 16 16" fill="none" xmlns="http://www.w3.org/2000/svg">
<g clip-path="url(#clip0_45_469)">
<path d="M2.16699 9.33333C2.16699 9.05719 2.39085 8.83333 2.66699 8.83333H4.66699C4.75125 8.83333 4.83414 8.85462 4.90797 8.89523L6.4621 9.75008H7.00032C7.82592 9.75008 8.50991 10.1723 8.87667 10.7362L6.66699 11.8062L4.8251 11.1922L4.50888 12.1409L6.50888 12.8076C6.61151 12.8418 6.72247 12.8418 6.82511 12.8076L9.86464 11.3198V10.4069L11.3157 9.92322C12.2366 9.61625 13.2372 10.0803 13.5977 10.9816L13.7974 11.481C13.894 11.7224 13.7894 11.9976 13.5568 12.1139L7.55681 15.1139C7.44532 15.1696 7.31703 15.1817 7.1971 15.1478L2.53089 13.8277C2.31561 13.7668 2.16699 13.5704 2.16699 13.3466V9.33333Z" fill="black"/>
<path fill-rule="evenodd" clip-rule="evenodd" d="M7.33415 0.833328C7.16087 0.833328 6.99993 0.923054 6.90883 1.07046C6.81773 1.21787 6.80944 1.40194 6.88694 1.55694L7.7227 3.22846C7.40034 3.54915 6.9964 3.98604 6.62221 4.48614C6.14025 5.13028 5.67099 5.92717 5.52936 6.74519C5.40492 7.46392 5.69686 8.08907 6.17325 8.51364C6.6414 8.93087 7.29437 9.16679 7.96687 9.16679H10.7014C11.3739 9.16679 12.0269 8.93087 12.4951 8.51364C12.9714 8.08907 13.2634 7.46392 13.1389 6.74519C12.9973 5.92717 12.5281 5.13028 12.0461 4.48614C11.6719 3.98604 11.268 3.54915 10.9456 3.22846L11.7814 1.55694C11.8589 1.40194 11.8506 1.21787 11.7595 1.07046C11.6684 0.923054 11.5074 0.833328 11.3342 0.833328H7.33415ZM10.5258 1.83333L10.0258 2.83333H8.64387L8.14387 1.83333H10.5258Z" fill="black"/>
</g>
<defs>
<clipPath id="clip0_45_469">
<rect width="16" height="16" fill="white"/>
</clipPath>
</defs>
</svg>
