<svg width="16" height="16" viewBox="0 0 16 16" fill="none" xmlns="http://www.w3.org/2000/svg">
<path d="M4.66668 1.33332C4.66668 0.965133 4.3682 0.666656 4.00001 0.666656C3.63182 0.666656 3.33334 0.965133 3.33334 1.33332V1.63256C3.58689 1.55213 3.85703 1.49471 4.14356 1.45306C4.30886 1.42903 4.48316 1.40983 4.66668 1.39448V1.33332Z" fill="black"/>
<path d="M12.6667 1.63256C12.4131 1.55213 12.143 1.49471 11.8565 1.45306C11.6912 1.42903 11.5169 1.40983 11.3333 1.39448V1.33332C11.3333 0.965133 11.6318 0.666656 12 0.666656C12.3682 0.666656 12.6667 0.965133 12.6667 1.33332V1.63256Z" fill="black"/>
<path fill-rule="evenodd" clip-rule="evenodd" d="M8.68585 1.33334H7.31415C6.01529 1.33332 4.96761 1.33331 4.14355 1.45308C3.28356 1.57808 2.5712 1.84522 2.01201 2.44975C1.45966 3.04688 1.22186 3.79516 1.10944 4.69912C0.999978 5.5793 0.999988 6.70272 1 8.11593V8.55076C0.999988 9.96396 0.999978 11.0874 1.10944 11.9676C1.22186 12.8715 1.45966 13.6198 2.01201 14.2169C2.5712 14.8215 3.28356 15.0886 4.14355 15.2136C4.96761 15.3334 6.01529 15.3334 7.31415 15.3333H8.68584C9.9847 15.3334 11.0324 15.3334 11.8564 15.2136C12.7164 15.0886 13.4288 14.8215 13.988 14.2169C14.5403 13.6198 14.7781 12.8715 14.8906 11.9676C15 11.0874 15 9.96396 15 8.55075V8.11595C15 6.70273 15 5.57931 14.8906 4.69912C14.7781 3.79516 14.5403 3.04688 13.988 2.44975C13.4288 1.84522 12.7164 1.57808 11.8564 1.45308C11.0324 1.33331 9.98471 1.33332 8.68585 1.33334ZM2.99855 6.00001C2.6928 6.00001 2.53993 6.00001 2.44257 6.09612C2.34521 6.19223 2.34325 6.34316 2.33933 6.64502C2.33351 7.09379 2.33333 7.59613 2.33333 8.16217V8.50452C2.33333 9.97442 2.33455 11.0148 2.43258 11.803C2.52885 12.5771 2.70842 13.0063 2.99081 13.3116C3.26637 13.6095 3.64313 13.7935 4.33533 13.8941C5.05238 13.9984 6.00284 14 7.36667 14H8.63333C9.99717 14 10.9476 13.9984 11.6647 13.8941C12.3569 13.7935 12.7336 13.6095 13.0092 13.3116C13.2916 13.0063 13.4712 12.5771 13.5674 11.803C13.6655 11.0148 13.6667 9.97442 13.6667 8.50452V8.16217C13.6667 7.59613 13.6665 7.09379 13.6607 6.64502C13.6568 6.34316 13.6548 6.19223 13.5574 6.09612C13.4601 6.00001 13.3072 6.00001 13.0014 6.00001H2.99855Z" fill="black"/>
<path fill-rule="evenodd" clip-rule="evenodd" d="M4.5 8.66668C4.5 8.20644 4.8731 7.83334 5.33333 7.83334H5.33931C5.79955 7.83334 6.17265 8.20644 6.17265 8.66668C6.17265 9.12691 5.79955 9.50001 5.33931 9.50001H5.33333C4.8731 9.50001 4.5 9.12691 4.5 8.66668ZM7.16368 8.66668C7.16368 8.20644 7.53677 7.83334 7.99701 7.83334H8.00299C8.46323 7.83334 8.83632 8.20644 8.83632 8.66668C8.83632 9.12691 8.46323 9.50001 8.00299 9.50001H7.99701C7.53677 9.50001 7.16368 9.12691 7.16368 8.66668ZM9.82735 8.66668C9.82735 8.20644 10.2004 7.83334 10.6607 7.83334H10.6667C11.1269 7.83334 11.5 8.20644 11.5 8.66668C11.5 9.12691 11.1269 9.50001 10.6667 9.50001H10.6607C10.2004 9.50001 9.82735 9.12691 9.82735 8.66668ZM4.5 11.3333C4.5 10.8731 4.8731 10.5 5.33333 10.5H5.33931C5.79955 10.5 6.17265 10.8731 6.17265 11.3333C6.17265 11.7936 5.79955 12.1667 5.33931 12.1667H5.33333C4.8731 12.1667 4.5 11.7936 4.5 11.3333ZM7.16368 11.3333C7.16368 10.8731 7.53677 10.5 7.99701 10.5H8.00299C8.46323 10.5 8.83632 10.8731 8.83632 11.3333C8.83632 11.7936 8.46323 12.1667 8.00299 12.1667H7.99701C7.53677 12.1667 7.16368 11.7936 7.16368 11.3333Z" fill="black"/>
</svg>
